<!-- Generated by scripts/readme/build.mjs; edit the generator. -->
<svg xmlns="http://www.w3.org/2000/svg" width="880" height="310" viewBox="0 0 880 310" role="img" aria-labelledby="title desc">
<title id="title">STK: Session Token Killer</title>
<desc id="desc">Claude Code and Codex share one outline engine. Files above the default 16 KiB threshold can become line-numbered outlines, with content available through targeted reads. The example declarations come from src/main.rs.</desc>
<style>
text{font-family:ui-monospace,'Cascadia Mono',Consolas,'Liberation Mono',monospace}
.sans{font-family:-apple-system,BlinkMacSystemFont,'Segoe UI',Helvetica,Arial,sans-serif}
.flow{stroke-dasharray:16 210;animation:travel 6s linear infinite}
@keyframes travel{from{stroke-dashoffset:226}to{stroke-dashoffset:0}}
@media(prefers-reduced-motion:reduce){.flow{animation:none;stroke-dasharray:none;stroke-dashoffset:0;opacity:.45}}
</style>
<rect x=".5" y=".5" width="879" height="309" rx="4" fill="#F3EEE3" stroke="#C8C1B4"/>
<text x="30" y="35" font-size="11" fill="#68665E" letter-spacing="2">SESSION TOKEN KILLER</text><text x="21" y="173" font-size="152" fill="#242422" font-weight="750" letter-spacing="-12">STK</text><text x="32" y="220" font-size="11" fill="#9A4900" letter-spacing="1.8">ONE BINARY</text><text x="32" y="245" font-size="15" fill="#68665E" class="sans">Claude Code + Codex</text><text x="350" y="72" font-size="36" fill="#242422" class="sans" font-weight="650" letter-spacing="-1.4">The file, in outline.</text><text x="350" y="103" font-size="17" fill="#68665E" class="sans">Read only what the task needs.</text><rect x="350" y="142" width="145" height="38" rx="3" fill="#FFFCF6" stroke="#C8C1B4"/><text x="364" y="166" font-size="13" fill="#242422" >Claude Code</text><rect x="350" y="205" width="145" height="38" rx="3" fill="#FFFCF6" stroke="#C8C1B4"/><text x="364" y="229" font-size="13" fill="#242422" >Codex</text><path d="M495 161H545V192H595" fill="none" stroke="#C8C1B4"/><path class="flow" d="M495 161H545V192H595" fill="none" stroke="#9A4900" stroke-width="2"/><path d="M495 224H545V192" fill="none" stroke="#C8C1B4"/><path class="flow" d="M495 224H545V192" fill="none" stroke="#9A4900" stroke-width="2"/><circle cx="545" cy="192" r="3" fill="#9A4900"/><rect x="595" y="142" width="253" height="101" rx="3" fill="#FFFCF6" stroke="#C8C1B4"/><text x="609" y="162" font-size="10" fill="#68665E" >src/main.rs</text><text x="609" y="184" font-size="13" fill="#9A4900" xml:space="preserve"> 22</text><text x="655" y="184" font-size="13" fill="#242422" >struct Cli</text><text x="609" y="204" font-size="13" fill="#9A4900" xml:space="preserve"> 28</text><text x="655" y="204" font-size="13" fill="#242422" >enum Command</text><text x="609" y="224" font-size="13" fill="#9A4900" xml:space="preserve">116</text><text x="655" y="224" font-size="13" fill="#242422" >fn main</text><path d="M32 272H848" stroke="#C8C1B4"/><text x="32" y="294" font-size="10" fill="#68665E" letter-spacing="1">OVERSIZED READ / OUTLINE / TARGETED LINES</text><text x="848" y="294" font-size="10" fill="#68665E" text-anchor="end">DEFAULT > 16 KiB</text>
</svg>
